<?xml version="1.0" encoding="utf-8"?>
<!-- Generator: Adobe Illustrator 23.1.1, SVG Export Plug-In . SVG Version: 6.00 Build 0)  -->
<svg version="1.1" id="Layer_1" xmlns="http://www.w3.org/2000/svg" xmlns:xlink="http://www.w3.org/1999/xlink" x="0px" y="0px"
	 viewBox="0 0 1040.62 346.47" style="enable-background:new 0 0 1040.62 346.47;" xml:space="preserve">
<style type="text/css">
	.st0{fill:#4B8FCC;}
	.st1{opacity:0.6;clip-path:url(#SVGID_2_);}
	.st2{opacity:0.8;}
	.st3{fill:#1D3251;}
	.st4{fill:#FFFFFF;}
	.st5{fill:#F05050;}
	.st6{opacity:0.6;}
	.st7{clip-path:url(#SVGID_4_);}
	.st8{fill:url(#SVGID_5_);}
	.st9{fill:none;}
	.st10{font-family:'AlphaMedium';}
	.st11{font-size:213.9525px;}
	.st12{letter-spacing:21;}
	.st13{fill:#204A93;}
	.st14{font-size:85.581px;}
	.st15{letter-spacing:2;}
</style>
<g>
	<g class="st6">
		<path class="st0" d="M568.24,186.71c-6.48,0.86-12.61,3.37-19.16,3.95c17.91,2.59,35.69,2.87,53.18-2.41
			c13.49-4.07,23.27-12.04,27.21-26.11c1.22-4.37,1.94-8.72,0.39-13.15c-1-2.84,0.72-3.63,3-3.8c3.94-0.3,8.25,3.52,8.73,8.18
			c1.25,12.14-1.2,23.45-8.54,33.4c-8.92,12.09-20.96,19.21-35.53,22.57c-22.22,5.13-44.62,4.64-67.08,2.54
			c-10.18-0.95-20.37-2.01-30.38-4.33c-8.66-2.01-16.9-5.04-24.43-9.83c-1.35-0.86-2.31-1.01-3.77-0.08
			c-7.08,4.5-15.05,6-23.25,6.11c-17.28,0.23-34.57,1.08-51.69-2.7c-16.35-3.62-32.16-8.99-48.02-14.19
			c-2.09-0.68-4.16-0.59-6.24-0.92c-13.47-2.11-26.23-6.64-36.93-14.94c-9.83-7.63-20.14-8.73-31.58-6.47
			c-5.38,1.06-10.44,2.8-14.88,6.11c-0.88,0.66-1.91,1.36-2.75,0.2c-0.66-0.91,0.07-1.84,0.81-2.44c1.45-1.16,2.08-2.76,2.8-4.39
			c3.61-8.13,10.06-12.93,18.22-16.14c17.52-6.88,34.42-5.15,50.8,3.28c21.86,11.26,44.29,9.71,66.93,3.31
			c9.74-2.75,19.35-5.8,29.61-6.19c7.45-0.28,14.3,1.51,20.59,5.15c3.24,1.87,6.18,1.97,9.32,0.65
			c12.16-5.11,22.22-12.84,28.81-24.43c4.32-7.59,5.23-15.99,2.65-24.25c-5.33-17.07-17.72-25.82-36.26-26.6
			c-11.77-0.5-21.55,3.57-29.62,12.07c-0.98,1.03-1.5,1.94-1.33,3.37c0.15,1.27,0.08,2.59-0.02,3.88c-0.17,2.22-0.63,4.42-3.46,4.45
			c-2.75,0.03-5.02-1.26-5.3-4.15c-0.55-5.54,0.74-10.76,3.87-15.43c0.75-1.12,1.83-1.86,3.44-0.86c0.59,1.74-1.51,3.83,0.58,5.64
			c1.92-1.77,3.61-3.89,6.04-5.12c1.02-0.51,1.04-1.52,0.88-2.47c-0.62-3.58,1.11-5.52,4.36-6.56c1.67-0.53,3.25-1.32,4.87-1.99
			c-1.87-5-1.44-6.4,3.54-8.35c9.07-3.54,18.27-6.79,28.29-5.42c3.98,0.55,6.91-0.59,8.68-4.63c-3.28-2.04-7.1-1.97-10.71-2.51
			c-3.71-0.55-7.5-0.59-11.24-0.97c-11.74-1.17-22.92,1.36-33.96,4.94c-3.36,1.09-6.11,2.97-8.25,5.77
			c-1.82,2.38-2.78,4.77-1.1,7.78c1.6,2.86-0.62,4.06-2.79,4.93c-3.36,1.36-5.73,3.54-6.64,7.13c1.03,1.21,2.38,1.18,3.62,1.32
			c1.72,0.19,3.03,0.71,2.82,2.78c-0.18,1.79,0.95,2.13,2.35,2.4c0.87,0.16,1.5,0.81,1.37,1.77c-0.16,1.16-1.07,1.42-2.08,1.47
			c-2.48,0.14-4.3-1.68-5.15-5.23c-2.4-0.04-5.21,0.48-6.49-2.26c-1.3-2.79,0.25-5.23,1.72-7.55c1.87-2.95,4.79-4.4,7.98-5.35
			c-2.08-7.07,1.16-14.09,8.72-16.91c12.53-4.67,25.47-7.72,39.02-6.1c6.98,0.84,14.14,0.62,20.84,3.26
			c0.58,0.23,1.16,0.34,1.66-0.1c5.71-5.05,12.16-3.23,18.43-1.76c2.46,0.58,4.5,0.78,7.07,0.12c4.79-1.23,9.59-0.31,13.92,2.3
			c5.55,3.35,10.9,6.97,15.31,11.82c0.41-0.2,0.82-0.27,1.01-0.52c4.7-6.21,10.69-5.71,16.77-2.84
			c9.51,4.48,16.77,11.63,22.36,20.44c2.35,3.71,2.55,8,2.15,12.69c15.56-0.97,21.08,10.38,26.53,21.63
			c11.28-0.65,19.01,4.23,20.18,13.28c0.68,5.21,0.74,10.54,0.1,15.85c-1.48,12.35-6.98,22.23-17.19,29.55
			c-8.23,5.89-16.11,12.29-25.79,15.77c-2.33,0.83-4.7,1.41-7.25,1.14c-1.7-0.18-2.49-1.02-2.71-2.6c4.73,0.08,9.07-1.44,13.1-3.65
			c9.41-5.16,18.19-11.25,26.11-18.54c2.53-2.33,4.32-5.16,5.81-8.31c3.85-8.14,4.39-16.66,4.07-25.48
			c-0.38-10.5-8.76-15.93-17.8-11.17c-1.12-0.48-1.29-1.47-1.54-2.54c-1.91-8.02-5.81-14.81-12.63-19.66
			c-2.7-1.92-5.86-2.45-9.08-2.22c-3.28,0.24-6.98,4.39-6.06,6.82c2.64,6.96,3.76,14.26,5.01,21.53c0.41,2.4,1.33,4.51,3.04,6.23
			c2.35,2.37,5.72,2.19,8.21,0c1.46-1.29,1.42-5,4.17-3.83c2.39,1.02,1,4.04,1.09,6.15c0.25,6.1,1.69,7.31,7.47,5.73
			c1.62-0.44,3.24-0.7,3.66,1.36c0.4,1.99,1.75,2.73,3.33,3.21c5.36,1.64,6.09,6.01,3.89,10.48c-2.89,5.86-6.42,11.41-11.27,16.08
			C589.98,177.3,579.28,182.25,568.24,186.71z M634.51,149.4c0.82,18.99-7.78,33-24.97,40.38c-10.27,4.41-21.22,6.67-32.32,6.58
			c-31.56-0.26-62.63-3.26-92.08-16.25c-12.23-5.4-24.14-10.89-34.57-19.47c-7.05-5.8-15.32-8.98-24.8-8.52
			c-7.24,0.35-14.37,1.37-21.1,3.84c-15.75,5.78-31.94,7.63-48.58,6.84c-6.53-0.31-12.83-1.31-18.85-4.02
			c-6-2.71-12.1-5.2-18.17-7.77c-16.03-6.8-31.34-3.83-46.23,3.61c-3.68,1.84-6.49,4.77-8.66,9.31c10.17-4.43,20.42-4.11,30.4-5.25
			c15.65-1.78,30.01,3.84,43.93,9.84c14.48,6.23,28.95,6.25,43.83,2.77c1.3-0.3,2.93-1.5,3.68,0.39c0.8,2.01-1.1,2.65-2.52,3.06
			c-14.06,4.09-28.28,4.63-41.85-1.11c-10.56-4.46-21.28-8.15-32.3-11.14c-3.62-0.98-7.26-1.44-11.35-0.85
			c2.16,1.37,4.1,2.42,5.86,3.72c24.37,18.05,50.9,21.87,79.51,12.13c10.67-3.63,21.1-8.2,32.48-9.28c8.53-0.81,17.07-1.8,25.34,2
			c8.84,4.07,16.92,9.27,24.43,15.38c10.76,8.74,22.54,15.43,36.28,18.06c23.91,4.58,48.06,6.37,72.37,4.99
			c11.19-0.64,22.31-2.47,32.73-6.69c19.22-7.79,32.79-24.36,30.77-47.63C637.6,152.19,636.88,150.53,634.51,149.4z M544.74,175.58
			c-0.52-1.85,0.53-2.69,1.45-3.55c2.5-2.32,5.08-4.55,7.6-6.86c8.49-7.77,14.4-17.04,16.26-28.57c1.21-7.5,0.92-15.03-0.28-22.49
			c-1.73-10.74-5.46-20.58-13.55-28.35c-3.08-2.96-6.39-4.48-10.75-3.28c-0.01,3.27,2.36,5.3,3.23,7.95
			c6.23,19,4.23,36.97-8.1,52.81c-10.51,13.5-23.98,23.46-40.71,28.36c-4.76,1.39-9.59,2.54-15.21,4.01
			c5.69,2.28,10.65,4.31,15.65,6.25c0.73,0.28,1.71,0.45,2.41,0.21c7.54-2.6,15.83-3.93,22.03-9.13
			c9.52-7.98,19.44-15.72,25.71-26.89c0.76-1.36,1.47-3.12,3.76-2.94c-9.83,19.4-23.71,34.35-46.17,40.83
			c1.81,0.64,2.85,1.14,3.95,1.38c6.22,1.4,12.43,1.97,18.88,2.3c19.57,0.99,37.56-2.97,54.41-12.82
			c9.62-5.63,16.83-13.48,22.01-23.26c1.7-3.22,0.9-5.17-2.54-6.6c-1.64-0.69-3.23-1.36-4.31-2.9c-1.32-1.87-2.44-0.97-3.09,0.53
			c-1.14,2.62-2.07,5.32-3.23,8.37c2.76-1.99,3.22-5.27,5.72-7.09c1.68,8.13-25.86,36.11-34.75,35.59c-0.19-1.64,1.06-2.3,2.16-2.88
			c8.33-4.41,14.42-11.03,19.27-19c3-4.92,6.14-9.74,7.92-15.52c-4.8-1.14-5.55-5.21-6.3-9.19c-1.87,0.84-3.34,1.5-4.95,2.22
			c0.37,5.79-0.57,11.26-3.35,16.39c-5.73,10.57-13.06,19.84-22.31,27.54c-1.38,1.15-3.18,3.92-4.86,2
			c-1.71-1.96,1.27-3.34,2.64-4.52c8.12-6.97,14.85-15.05,20.22-24.31c2.7-4.67,4.54-9.55,4.8-14.96c0.05-1.11,0.51-2.52-0.99-3.06
			c-1.79-0.64-3.01-2.1-4.92-3.44C572.94,151.58,561.51,165.42,544.74,175.58z M494.93,84.51c0.52,0.22,0.99,0.3,1.31,0.56
			c10.6,8.88,13.56,20.56,10.84,33.45c-3.09,14.64-9.57,27.65-21.24,37.76c-5.59,4.84-11.26,9.19-19.53,10.97
			c3.24,1.61,5.62,2.83,8.03,3.98c2.35,1.12,12.24-1.92,13.51-4.13c0.11-0.19,0.26-0.47,0.2-0.64c-1.1-3.09,1.45-3.74,3.23-4.97
			c8.81-6.1,15.76-13.44,18.62-24.31c1.81-6.86,2.91-13.82,3.98-20.75c1.2-7.76,0.8-15.57-2.3-23.16c-1.72-4.2-4.55-7.35-7.28-10.7
			c-8.27-10.12-18.34-17.34-31.31-20.44c-12.19-2.91-23.4-0.33-34.35,4.8c-0.39,0.18-0.67,0.59-1.11,0.99c0.3,0.46,0.5,0.88,0.8,1.2
			c3.13,3.21,2.85,4.25-1.39,5.52c-2.02,0.61-3.99,1.39-5.96,2.16c-1.25,0.48-2.43,1.09-1.52,2.96c0.68-0.18,1.42-0.23,1.98-0.56
			c6.13-3.67,12.87-4.1,19.78-3.92c18.83,0.48,33.36,10.56,39.22,28.08c3.77,11.27,1.95,22.1-4.9,31.89
			c-7.9,11.3-18.05,19.51-32.4,22.5c3.04,2.33,5.72,4.41,8.42,6.45c0.56,0.42,1.18,0.87,1.94,0.58c3.93-1.49,8.2-1.9,11.86-4.32
			c12.74-8.44,21.45-20.01,26.53-34.26c4.77-13.39,5.08-26.31-5.58-37.53C495.38,87.68,494.11,86.5,494.93,84.51z M518.87,66.24
			c0.92,1.33,1.5,2.17,2.09,3.01c3.67,5.22,6.83,10.72,8.61,16.89c7.34,25.51-0.97,46.92-18.4,65.15
			c-7.36,7.7-14.56,16.16-25.04,20.37c0.85,0.15,1.54,0.05,2.21-0.1c13.98-3.09,26.38-9.09,37.78-18.01
			c10.09-7.91,16.85-17.69,20.76-29.5c4.03-12.15,2.52-24.53-2.95-35.67c-3.88-7.9-10.48-14.41-18.15-19.31
			C523.85,67.82,521.73,66.85,518.87,66.24z M542.47,80.61c5.34-3.14,12.26-2,16.69,2.63c3.7,3.88,6.82,8.23,9.72,12.33
			c5.17-2.02,3.49-5.83,2.64-8.84c-3.54-12.43-13.25-19.25-23.89-24.92c-4.59-2.44-9.02-1.99-12.57,2.48
			c-1.81,2.28-3.81,2.3-5.87-0.08c-3.99-4.59-9.14-7.75-14.31-10.79c-4.22-2.48-8.79-3.25-13.5-1.21c-1.7,0.74-3.25,0.13-4.77-0.47
			c-4.04-1.61-8.24-1.8-12.5-1.51c-2.15,0.14-4.22,0.98-4.65,3.11c-0.49,2.41-1.57,4.2-3.93,5.76c1.05,0.36,1.56,0.58,2.09,0.72
			c15.44,3.95,25.94,14.69,34.72,26.87c6.83,9.47,6.91,20.95,4.87,32.22c-1.32,7.35-1.52,14.87-3.7,22.12
			c2.84-4.32,4.45-9.1,5.75-13.94c4.36-16.24,3.98-31.95-6.52-46.04c-4.21-5.65-8.86-10.98-14.27-15.59
			c-1.19-1.01-3.23-1.94-2.59-3.82c0.67-2,2.78-2.72,4.76-3.2c0.67-0.16,1.41-0.16,2.11-0.09c13.56,1.26,25.57,5.88,34.87,16.26
			C539.34,76.53,540.87,78.61,542.47,80.61z M445.71,176.8c-13.84,10.51-28.25,18.82-45.8,20.22c0.98,0.46,1.95,0.82,2.95,0.98
			c17.17,2.83,34.45,2.39,51.72,1.37c5.43-0.32,10.77-1.72,15.66-4.95c-2.98-2.27-5.74-4.37-8.52-6.49
			c-5.99,5.26-12.46,8.71-19.76,10.37c-0.31-0.57-0.62-1.15-0.93-1.72c5.71-4.04,13.67-4.48,18.57-10.46
			C455.04,182.6,450.43,179.46,445.71,176.8z M405.22,174.13c-14.93,4.38-28.41,11.14-43.51,12.33c5.44,2.08,10.91,3.77,16.33,5.59
			c2.78,0.93,5.56,0.78,8.36,0.32c14.03-2.29,26.44-8.83,38.93-15.07c2.61-1.3,5.2-2.94,6.94-5.87c-5.65-0.4-10.9-0.08-16.16,0.5
			c-2.43,0.27-4.39,1.03-6.19,2.85c-4.01,4.06-8.81,7.04-14.23,8.9c-1.51,0.52-3.26,1.52-5.07-0.65
			C395.18,179.81,401,179,405.22,174.13z M498.82,62.09c21.85,16.73,31.04,37.42,24.67,63.99c4.08-7.08,5.34-14.53,5.13-22.47
			c-0.39-14.31-4.7-26.91-14.63-37.47C509.99,61.88,505.16,61.49,498.82,62.09z M392.52,194.34c18.97-0.21,34.97-8.03,49.95-19.11
			c-5.44-2.99-5.43-2.98-9.79,0.78c-3.5,3.02-7.46,5.3-11.71,7.12C411.59,187.16,402.47,191.81,392.52,194.34z M415.81,98.94
			c0.61-2.58,0.91-5.13-0.69-8.17C414.35,94.02,413.55,96.59,415.81,98.94z"/>
		<path class="st0" d="M423.56,111.2c0.03-0.3,0.18-0.9,0.1-1.47c-0.49-3.63,0.07-4.11,3.6-2.89c0.88,0.31,1.76,0.68,2.57,1.14
			c2.42,1.38,3.62,3.36,2.58,6.17c-1.03,2.75-3.3,3.2-5.79,2.7C423.68,116.27,423.09,114.12,423.56,111.2z M425.76,109.87
			c-0.17,1.83-0.38,3.49,1.75,4.07c1.05,0.29,2.02-0.25,1.94-1.39C429.29,110.48,427.56,110.26,425.76,109.87z"/>
		<path class="st0" d="M392.61,169.87c-1.33-0.03-2.53,0-2.7-1.39c-0.17-1.39,1-1.64,2.04-1.92c1.46-0.39,2.92-0.81,4.37-1.24
			c0.84-0.25,1.68-0.34,2.2,0.49c0.66,1.08-0.14,1.8-0.9,2.32C396.05,169.24,394.27,169.78,392.61,169.87z"/>
	</g>
	<rect x="146.27" y="107.12" class="st9" width="524.81" height="169.76"/>
	<text transform="matrix(1 0 0 1 146.268 256.8754)" class="st5 st10 st11 st12">HAIKU</text>
	<rect x="689.42" y="107.71" class="st9" width="241.09" height="169.17"/>
	<text transform="matrix(1 0 0 1 689.4164 167.6152)"><tspan x="0" y="0" class="st13 st10 st14 st15">by the</tspan><tspan x="0" y="88.64" class="st13 st10 st14 st15">sea</tspan></text>
</g>
</svg>
